<svg width="150" height="100" viewBox="0 0 404 318" fill="none" xmlns="http://www.w3.org/2000/svg">
<g filter="url(#filter0_d_7_2)">
<path d="M102.752 216.314C107.106 219.795 107.291 222.178 105.851 223.396C104.815 221.119 103.779 218.755 102.752 216.314Z" fill="url(#paint0_linear_7_2)" shape-rendering="crispEdges"/>
<path d="M159.642 261.656C158.137 285.073 191.24 294.308 201.772 303.543C212.305 312.778 239.138 275.618 245.031 261.656C240.216 218.646 214.186 239.337 201.772 255.059C173.184 228.937 161.147 238.238 159.642 261.656Z" fill="url(#paint1_linear_7_2)" shape-rendering="crispEdges"/>
<path d="M105.851 261.656C105.851 261.656 42.655 244.175 24.9753 223.396C7.2956 202.617 -8.12708 179.925 50.5545 194.701C103.217 210.533 109.361 220.427 105.851 223.396C78.3906 163.038 50.5545 41.3324 220.957 50.2377C391.359 59.143 289.795 237.908 289.795 237.908L355.623 194.701C377.19 186.236 413.101 178.54 384.212 215.48L327.411 261.656M201.772 303.543C191.24 294.308 158.137 285.073 159.642 261.656C161.147 238.238 173.184 228.937 201.772 255.059C214.186 239.337 240.216 218.646 245.031 261.656C239.138 275.618 212.305 312.778 201.772 303.543Z" stroke="black" stroke-width="10" shape-rendering="crispEdges"/>
</g>
<ellipse cx="150.814" cy="140.807" rx="10.9087" ry="7.25615" fill="black"/>
<ellipse cx="247.864" cy="140.807" rx="10.9087" ry="7.25615" fill="black"/>
<path d="M172 169C183.41 187.8 214.507 193.077 231.81 169" stroke="black" stroke-width="14"/>
<path d="M117.711 123.656C101.912 158.617 184.292 185.333 179.026 123.656H117.711Z" stroke="black" stroke-width="14"/>
<path d="M285.104 123.758H224.918C216.642 146.846 239.212 163.337 265.544 159.049C286.609 155.619 287.361 134.093 285.104 123.758Z" stroke="black" stroke-width="14"/>
<path d="M125.611 71.8728L181.659 59.9591M181.659 59.9591L212.505 53.4026L132.382 64.9465L193.696 58.1535M181.659 59.9591L236.579 53.4026L193.696 58.1535M257.644 64.9465L250.497 64.1873M193.696 58.1535L250.497 64.1873M293.756 78.7991L250.497 64.1873M317.831 125.964L286.985 71.8728L317.831 119.697L314.069 174.119M84.9851 157.298C76.7095 140.147 84.0823 104.591 89.4991 114.09" stroke="black" stroke-width="14"/>
<path d="M81.5996 145.424C88.6213 130.802 100.558 102.679 92.1322 107.164C81.5996 112.771 133.51 70.5536 125.611 64.2869C117.711 58.0202 207.238 54.722 206.486 49.7746C205.734 44.8272 290.371 74.5115 293.004 74.5115C295.637 74.5115 318.583 125.305 318.207 126.954C317.906 128.273 315.573 148.392 314.445 158.287M156.832 53.4027C154.809 45.2588 154.418 31.0354 163.495 23.7185M165.108 33.2834L173.76 30.7548M165.108 33.2834V29.6554L177.521 33.2834C176.268 33.2834 173.76 32.7777 173.76 30.7548M165.108 33.2834C164.524 33.9091 163.598 35.1763 162.757 36.9115M163.495 23.7185C162.205 21.3438 172.308 24.708 177.521 26.6869V29.6554L173.76 30.7548M163.495 23.7185C164.918 22.5712 166.574 21.5937 168.493 20.8361M173.76 36.9115C173.384 38.1209 173.609 39.814 177.521 36.9115C182.412 33.2834 180.907 34.6489 187.678 33.2834C193.095 32.1911 199.715 34.4689 202.348 35.7444M202.348 35.7444L231.313 49.7746C237.582 58.0203 249.068 68.7066 244.855 45.487C239.588 16.4624 250.121 33.2834 221.909 14.4834C205.722 3.69707 203.033 6.48206 198.21 11.0031M202.348 35.7444L177.521 23.7185L187.866 19.1009M195.201 37.5364C199.715 37.5364 222.536 28.0429 226.047 26.6869L236.579 29.6554L233.946 30.7548L218.147 19.1009L209.871 14.4834C206.486 14.4834 202.396 7.52277 198.21 11.0031M198.21 11.0031C194.628 14.362 189.868 18.6791 177.521 19.1009C174.009 19.2209 171.023 19.8375 168.493 20.8361M187.866 19.1009L198.21 14.4834L221.909 26.6869L231.313 36.9115C238.961 40.3197 249.67 46.8063 231.313 45.487C208.367 43.8378 214.385 40.2098 198.21 42.8484C182.035 45.487 185.045 40.2098 177.521 42.8484C171.503 44.9592 166.738 45.487 165.108 45.487C163.478 46.5864 160.368 47.5978 160.97 42.8484C161.261 40.5561 161.972 38.5302 162.757 36.9115M187.866 19.1009L198.21 26.6869L206.486 33.2834C200.969 28.2261 191.59 15.4069 198.21 19.1009C204.831 22.795 214.26 28.8858 218.147 33.2834L226.047 40.2098L233.946 33.2834L236.579 39.5583L182.412 36.9115H162.757M165.108 49.7746L168.493 20.8361" stroke="black" stroke-width="14"/>
<path d="M116.845 123L86 141.8M184.555 133.554H219.162M288.376 123L317.717 141.8" stroke="black" stroke-width="14"/>
<path d="M148.5 47C155 47 228.5 49.0002 252 45.5" stroke="#F946DD" stroke-width="8"/>
<defs>
<filter id="filter0_d_7_2" x="-0.000137329" y="44.7744" width="404" height="273.235" filterUnits="userSpaceOnUse" color-interpolation-filters="sRGB">
<feFlood flood-opacity="0" result="BackgroundImageFix"/>
<feColorMatrix in="SourceAlpha" type="matrix" values="0 0 0 0 0 0 0 0 0 0 0 0 0 0 0 0 0 0 127 0" result="hardAlpha"/>
<feOffset dy="4"/>
<feGaussianBlur stdDeviation="2"/>
<feComposite in2="hardAlpha" operator="out"/>
<feColorMatrix type="matrix" values="0 0 0 0 0 0 0 0 0 0 0 0 0 0 0 0 0 0 0.25 0"/>
<feBlend mode="normal" in2="BackgroundImageFix" result="effect1_dropShadow_7_2"/>
<feBlend mode="normal" in="SourceGraphic" in2="effect1_dropShadow_7_2" result="shape"/>
</filter>
<linearGradient id="paint0_linear_7_2" x1="202.149" y1="303.214" x2="202.031" y2="303.554" gradientUnits="userSpaceOnUse">
<stop stop-color="#750C0C"/>
<stop offset="0.0001" stop-color="#750C0C" stop-opacity="0.71"/>
<stop offset="1" stop-color="#750C0C" stop-opacity="0"/>
</linearGradient>
<linearGradient id="paint1_linear_7_2" x1="202.149" y1="303.214" x2="202.031" y2="303.554" gradientUnits="userSpaceOnUse">
<stop stop-color="#750C0C"/>
<stop offset="0.0001" stop-color="#750C0C" stop-opacity="0.71"/>
<stop offset="1" stop-color="#750C0C" stop-opacity="0"/>
</linearGradient>
</defs>
</svg>
